<?xml version="1.0" encoding="utf-8"?>
<!-- Generator: Adobe Illustrator 23.1.0, SVG Export Plug-In . SVG Version: 6.00 Build 0)  -->
<svg version="1.1" id="Camada_1" xmlns="http://www.w3.org/2000/svg" xmlns:xlink="http://www.w3.org/1999/xlink" x="0px" y="0px"
	 viewBox="0 0 200 68" enable-background="new 0 0 200 68" xml:space="preserve">
<path fill="#339FB0" d="M23.7,12c-0.1-1.1,0.1-2.3,0.8-3.2c1-1.4,2.6-2,4.2-1.8l5.6,0.7l18,2.3c-0.9-2.1-2.2-4-3.6-5.5
	c-2.1-2.1-4.7-3.3-7.1-3.1c-3.6,0.2-20.4,1.3-25.3,1.7c-3.9,0.3-8,0.5-12.3,0.8C2.5,4,1.7,5.4,2.1,6.6c3.3,9.5,6.5,18.6,9.6,27.5
	c3,8.5,5.8,16.7,8.6,24.7c0.3,0.8,1.4,0.9,1.8,0.1c1.8-3.4,3.5-6.6,5.3-9.7L23.7,12z"/>
<path fill="#40494F" d="M88.6,36.4h9.7c1.4,0,2.2-0.2,2.4-0.6c0.2-0.4,0.3-1.7,0.3-3.9v-2.4c0-2.2-0.1-3.5-0.3-3.9
	c-0.2-0.4-1-0.6-2.4-0.6h-9.7V36.4z M88.6,53h-5.2V19.8h15c3.4,0,5.8,1.1,7,3.3c0.7,1.2,1,3.3,1,6.4V32c0,3-0.3,5.2-1,6.4
	c-1.2,2.2-3.5,3.3-7,3.3h-9.7V53z"/>
<path fill="#40494F" d="M119.6,34c-2.7,0-4.3,0.3-4.7,1c-0.4,0.5-0.6,2.4-0.6,5.4V53h-5.2V40.4c0-4.1,0.5-6.9,1.4-8.3
	c1.5-2.2,4.5-3.3,9.1-3.3h3.7V34H119.6z"/>
<path fill="#40494F" d="M131.5,35c-0.4,0.5-0.6,2.4-0.6,5.5v1.3c0,3.1,0.2,4.9,0.6,5.5c0.4,0.7,2,1,4.7,1c2.7,0,4.3-0.3,4.7-1
	c0.4-0.5,0.5-2.3,0.5-5.4v-1.4c0-3.1-0.2-4.9-0.5-5.4c-0.4-0.7-2-1-4.7-1C133.6,34,132,34.3,131.5,35 M127.2,50.1
	c-1-1.4-1.4-4.2-1.4-8.4v-1.3c0-4.1,0.5-6.9,1.4-8.4c1.5-2.2,4.5-3.4,9.1-3.4c4.6,0,7.6,1.1,9.1,3.3c1,1.4,1.4,4.2,1.4,8.3v1.4
	c0,4.1-0.5,6.9-1.4,8.3c-1.5,2.2-4.5,3.3-9.1,3.3C131.7,53.4,128.6,52.3,127.2,50.1"/>
<path fill="#40494F" d="M156.9,35c-0.4,0.5-0.5,2.2-0.6,5v1.8c0,2.8,0.2,4.5,0.6,5c0.4,0.7,2,1,4.7,1c2.7,0,4.3-0.3,4.7-1
	c0.4-0.5,0.5-2.4,0.5-5.5v-0.9c0-3.1-0.2-4.9-0.5-5.5c-0.4-0.7-2-1-4.7-1C158.9,34,157.3,34.3,156.9,35 M156.3,62.3h-5.2V38h0
	c0.1-2.7,0.5-4.7,1.4-6c1.5-2.2,4.5-3.4,9.1-3.4c4.6,0,7.6,1.1,9.1,3.4c0.9,1.4,1.4,4.2,1.4,8.4v0.9c0,4.1-0.5,6.9-1.4,8.4
	c-1.5,2.2-4.5,3.4-9.1,3.4c-2.3,0-4.1-0.7-5.3-2V62.3z"/>
<path fill="#40494F" d="M196,53h-16c-1.4,0-2.8-0.8-3.4-2.2c-0.6-1.3-0.4-2.9,0.5-4l10.6-12.5h-11.9v-5.2H191c1.5,0,2.8,0.8,3.4,2.2
	c0.6,1.3,0.4,2.9-0.5,4l-10.6,12.4H196V53z"/>
<linearGradient id="SVGID_1_" gradientUnits="userSpaceOnUse" x1="26.1034" y1="38.6164" x2="76.7487" y2="38.6164">
	<stop  offset="0" style="stop-color:#FF6600"/>
	<stop  offset="1" style="stop-color:#F3AB1D"/>
</linearGradient>
<path fill="url(#SVGID_1_)" d="M41.6,41.8c-0.4,0-0.7-0.3-0.7-0.7c-0.1-1-0.1-2-0.2-3.1c0-0.4,0.2-0.7,0.6-0.7
	c5.1-0.1,9.9-0.1,14.4-0.2c4.2-0.1,8-0.1,11.7-0.1c0.2,0,0.4,0.3,0.4,0.6c0,0.8,0,1.6,0.1,2.5c0,0.3-0.2,0.6-0.4,0.6
	c-3.6,0.2-7.5,0.3-11.6,0.5C51.5,41.4,46.7,41.6,41.6,41.8 M40.1,30.1C40,29.1,40,28,39.9,27c0-0.4,0.2-0.7,0.6-0.7
	c5.2,0.4,10.1,0.7,14.6,1c4.2,0.3,8.2,0.6,11.9,0.8c0.2,0,0.4,0.3,0.4,0.6c0,0.8,0,1.7,0.1,2.5c0,0.3-0.2,0.6-0.4,0.6
	c-3.7-0.1-7.6-0.3-11.8-0.4c-4.5-0.2-9.3-0.3-14.5-0.5C40.4,30.8,40.1,30.5,40.1,30.1 M66.4,14.4l-32.5-4.2
	c-1.8-0.2-3.7-0.5-5.6-0.7c-1.3-0.2-2.4,0.9-2.2,2.2c1,10,1.9,19.6,2.9,29c0.9,9,1.8,17.8,2.6,26.3c0.1,0.9,1.1,1.2,1.7,0.6
	c3.2-3.5,6.3-6.9,9.3-10.2c0.8-0.9,1.9-1.4,3-1.5c0.9-0.1,2.7-0.3,5-0.6l0,0l15.8-2.1c5.9-0.8,10.3-5.9,10.3-11.9V26.3
	C76.7,20.3,72.3,15.2,66.4,14.4"/>
</svg>
